<svg width="169" height="15" viewBox="0 0 169 15" fill="none" xmlns="http://www.w3.org/2000/svg">
<path d="M0 0L10.286 15L11.142 13.7565L11.144 13.7587L12 12.5063L11.142 11.2494L3.42798 0H0Z" fill="#242841"/>
<path d="M7 0L17.9989 15L29 0H27.1669L18.9166 11.2494L16.1657 7.49889L21.6674 0H19.8343L15.2503 6.2487L10.6663 0H7Z" fill="#242841"/>
<path fill-rule="evenodd" clip-rule="evenodd" d="M117.53 7.541C117.53 11.9922 115.895 14.2405 111.437 14.2513C106.979 14.2405 105.343 11.9922 105.343 7.541C105.343 3.08976 106.979 0.843643 111.437 0.830697C115.895 0.841486 117.53 3.08976 117.53 7.541ZM121 7.5C121 8.79675 120.756 9.91872 120.271 10.8659C120.019 11.3557 119.714 11.8024 119.362 12.2037L119.123 12.4626C118.861 12.7301 118.577 12.9761 118.268 13.2005C117.42 13.8111 116.416 14.2621 115.263 14.5577C114.108 14.8511 112.865 15 111.527 15C110.185 15 108.933 14.8533 107.771 14.5577C106.609 14.2642 105.601 13.8111 104.743 13.2005C103.886 12.5834 103.216 11.8045 102.729 10.8659C102.241 9.91872 102 8.79675 102 7.5C102 6.63694 102.113 5.85587 102.338 5.15463C102.564 4.44692 102.88 3.81473 103.286 3.26237C103.692 2.70138 104.182 2.21807 104.757 1.81027C105.337 1.40463 105.98 1.06804 106.683 0.800494C107.394 0.526472 108.157 0.327968 108.971 0.200667C109.783 0.0668922 110.636 0 111.529 0C112.865 0 114.11 0.146724 115.265 0.442323C116.42 0.737921 117.422 1.19318 118.27 1.81027C118.609 2.05193 118.915 2.32163 119.197 2.61723L119.367 2.80279C119.719 3.20411 120.023 3.65291 120.276 4.14701C120.756 5.08559 121 6.20325 121 7.5Z" fill="#242841"/>
<path d="M34 0H47V0.774669H37.0008V6.72422H47V7.49889H37.0008V14.2231H47V15H34V0Z" fill="#242841"/>
<path d="M56.768 0H54V15H66V14.2231H56.768V0Z" fill="#242841"/>
<path d="M72 0H75.0008V14.2231H85V15H72V0Z" fill="#242841"/>
<path d="M94 0H91V15H94V0Z" fill="#242841"/>
<path d="M127 0H130.08L142.918 13.2743V0H146V15H142.918V14.8661L130.08 1.59175V15H127V0Z" fill="#242841"/>
<path d="M161.29 0.850715C164.937 0.850715 166.985 1.70143 167.853 2.12786V0.850715C167.021 0.567857 164.54 0 161.29 0C157.229 0 154 1.38214 154 3.61714C154 5.85214 156.499 6.48857 161.29 7.55357C166.081 8.61643 166.081 10.425 166.081 11.2779C166.081 12.1307 165.352 13.6179 163.582 13.83C158.999 14.3807 155.18 13.1379 154 12.4286V14.025C157.854 14.8757 159.416 15 162.854 15C167.541 15 169 12.4479 169 11.2757C169 9.89357 168.564 9.12214 167.333 8.40428C165.876 7.55357 163.062 7.09286 161.292 6.70286C158.063 5.99144 157.021 4.89429 157.021 3.61714C157.019 2.76643 157.957 0.850715 161.29 0.850715Z" fill="#242841"/>
</svg>
